<?xml version="1.0" encoding="UTF-8" standalone="no"?>
<svg width="35px" height="35px" viewBox="0 0 35 35" version="1.1" xmlns="http://www.w3.org/2000/svg" xmlns:xlink="http://www.w3.org/1999/xlink" xmlns:sketch="http://www.bohemiancoding.com/sketch/ns">
    <!-- Generator: Sketch 3.3.2 (12043) - http://www.bohemiancoding.com/sketch -->
    <title>handicap icon copy</title>
    <desc>Created with Sketch.</desc>
    <defs></defs>
    <g id="Page-1" stroke="none" stroke-width="1" fill="none" fill-rule="evenodd" sketch:type="MSPage">
        <g id="Desktop---3-Camp-Cols" sketch:type="MSArtboardGroup" transform="translate(-210.000000, -3475.000000)">
            <g id="Campgrounds" sketch:type="MSLayerGroup" transform="translate(10.000000, 2962.000000)">
                <g id="Camps" transform="translate(0.000000, 112.000000)" sketch:type="MSShapeGroup">
                    <g id="Row-1">
                        <g id="Altair">
                            <g id="Text-content" transform="translate(11.000000, 205.000000)">
                                <g id="Icons-+-$20-per-night,-first" transform="translate(1.000000, 167.000000)">
                                    <g id="Icons" transform="translate(0.000000, 29.000000)">
                                        <g id="handicap-icon-copy" transform="translate(188.000000, 0.000000)">
                                            <rect id="Rectangle-103" fill="#858C04" x="0" y="0" width="35" height="35"></rect>
                                            <g id="hospital31" transform="translate(4.000000, 4.000000)" fill="#E8E7D3">
                                                <path d="M7.59770732,3.88097561 C7.44843902,3.54263415 7.37380488,3.17443902 7.37380488,2.77639024 C7.37380488,2.3982439 7.44843902,2.04 7.59770732,1.70165854 C7.74697561,1.36331707 7.946,1.0697561 8.19478049,0.82097561 C8.44356098,0.572195122 8.73712195,0.373170732 9.07546341,0.223902439 C9.41380488,0.0746341463 9.782,0 10.1800488,0 C10.5581951,0 10.916439,0.0746341463 11.2547805,0.223902439 C11.593122,0.373170732 11.8916585,0.572195122 12.1503902,0.82097561 C12.409122,1.0697561 12.6081463,1.36331707 12.7474634,1.70165854 C12.8867805,2.04 12.956439,2.3982439 12.956439,2.77639024 C12.956439,3.55258537 12.6877561,4.21434146 12.1503902,4.76165854 C11.6130244,5.30897561 10.9562439,5.58263415 10.1800488,5.58263415 C9.782,5.58263415 9.41380488,5.508 9.07546341,5.35873171 C8.73712195,5.20946341 8.44356098,5.01043902 8.19478049,4.76165854 C7.946,4.51287805 7.74697561,4.21931707 7.59770732,3.88097561 L7.59770732,3.88097561 Z M18.4495122,19.1660488 C18.1111707,19.0863902 17.8077073,19.1362439 17.5390244,19.3153659 C17.2703415,19.4944878 17.0961951,19.7432195 17.0165854,20.0617561 C16.956878,20.3602439 16.8673171,20.6488293 16.7479024,20.9275122 C16.4891707,21.6240488 16.1259512,22.2609756 15.6582439,22.8381463 C15.1905366,23.4153171 14.653122,23.9129268 14.0461463,24.3308293 C13.439122,24.7487805 12.7723902,25.0722439 12.0459512,25.3012195 C11.3195122,25.5299512 10.5681951,25.6444878 9.792,25.6444878 C8.77697561,25.6444878 7.82165854,25.4554634 6.92604878,25.0773171 C6.03043902,24.6990732 5.24926829,24.1916585 4.58253659,23.5547317 C3.91580488,22.9177073 3.38839024,22.1664878 3.00029268,21.3008293 C2.61219512,20.4350732 2.41814634,19.5045366 2.41814634,18.5093659 C2.41814634,17.7729756 2.53258537,17.0614634 2.76146341,16.3748293 C2.99034146,15.6881951 3.3137561,15.0512683 3.73170732,14.4641951 C4.14965854,13.8770244 4.64721951,13.359561 5.22439024,12.9117561 C5.80156098,12.4639512 6.44839024,12.1007317 7.16487805,11.8220976 C7.48331707,11.7225854 7.71219512,11.523561 7.8515122,11.2250244 C7.99082927,10.9264878 8.00078049,10.6279512 7.88136585,10.3294146 C7.76195122,10.030878 7.548,9.81692683 7.2395122,9.68756098 C6.93102439,9.55819512 6.61756098,9.54326829 6.29912195,9.64278049 C5.36370732,10.0010244 4.50790244,10.4786829 3.73170732,11.0757561 C2.9555122,11.6728293 2.28878049,12.3594634 1.7315122,13.1356585 C1.1742439,13.9118537 0.746341463,14.7576098 0.447804878,15.6732195 C0.149268293,16.5886829 -1.77635684e-15,17.534 -1.77635684e-15,18.5093171 C-1.77635684e-15,19.8229756 0.258731707,21.0518049 0.776195122,22.1962439 C1.29365854,23.3405854 1.99521951,24.3406829 2.88087805,25.1965366 C3.76653659,26.0522927 4.80146341,26.7290244 5.98565854,27.2265366 C7.16985366,27.7241463 8.43863415,27.9729268 9.792,27.9729268 C10.8269268,27.9729268 11.8220488,27.8236098 12.7773659,27.525122 C13.7326341,27.2265366 14.6182927,26.8036098 15.4343415,26.2563415 C16.2502927,25.7090732 16.9668293,25.0472195 17.5837073,24.2710244 C18.2006829,23.4948293 18.6783415,22.6390732 19.0166829,21.7036585 C19.1560488,21.3651707 19.2754146,20.987122 19.3749268,20.5692195 C19.4546341,20.2307805 19.4047805,19.9321951 19.2256585,19.673561 C19.0465366,19.4150244 18.7879024,19.2457073 18.4495122,19.1660488 L18.4495122,19.1660488 Z M25.9725854,23.7337073 L21.4049756,15.7925854 C21.2457561,15.4541463 21.006878,15.1855122 20.6884878,14.9864878 C20.3700488,14.7874634 20.0118049,14.688 19.6137561,14.688 L14.5386341,14.688 L13.941561,11.7623415 L17.9121951,11.7623415 C18.1509756,11.7822439 18.3799024,11.742439 18.5988293,11.6429268 C18.8176098,11.5434146 18.9867805,11.3841951 19.1061951,11.1652683 C19.265561,10.8866341 19.3002927,10.5880976 19.2108293,10.2696585 C19.1212683,9.95121951 18.9271707,9.71239024 18.6285366,9.55317073 C18.4693171,9.45365854 18.2901951,9.40390244 18.0911707,9.40390244 L13.4339512,9.40390244 L13.1653171,8.03063415 C13.1653171,7.99082927 13.1602927,7.96595122 13.1503415,7.956 C13.1403902,7.94604878 13.1353659,7.92117073 13.1353659,7.88136585 L13.105561,7.79180488 C12.9662439,7.33404878 12.7025366,6.95590244 12.314439,6.65736585 C11.9263415,6.35882927 11.473561,6.20956098 10.9560976,6.20956098 C10.3192195,6.20956098 9.78185366,6.4235122 9.344,6.85141463 C8.90614634,7.27931707 8.68721951,7.79180488 8.68721951,8.38887805 C8.68721951,8.48839024 8.69717073,8.568 8.71707317,8.62770732 L8.68721951,8.62770732 L10.3291707,16.5389268 C10.4087805,16.9967317 10.6277073,17.3699024 10.9859512,17.6584878 C11.3441951,17.9470732 11.7621463,18.0913171 12.2398049,18.0913171 C12.379122,18.0913171 12.4885854,18.0814146 12.5681951,18.0615122 L19.3450244,18.0615122 L23.2857073,24.9278537 C23.4050244,25.1865366 23.5841463,25.395561 23.8230732,25.554878 C24.0619024,25.7140976 24.3405854,25.7937073 24.6589756,25.7937073 C25.0570244,25.7937073 25.4003415,25.6544878 25.6889268,25.3757561 C25.9775122,25.0970732 26.1218049,24.758878 26.1218049,24.3606829 C26.1219512,24.141561 26.0721463,23.9327317 25.9725854,23.7337073 L25.9725854,23.7337073 Z" id="Shape"></path>
                                            </g>
                                        </g>
                                    </g>
                                </g>
                            </g>
                        </g>
                    </g>
                </g>
            </g>
        </g>
    </g>
</svg>