<?xml version="1.0" encoding="UTF-8" standalone="no"?>
<svg width="24px" height="25px" viewBox="0 0 24 25" version="1.1" xmlns="http://www.w3.org/2000/svg" xmlns:xlink="http://www.w3.org/1999/xlink" xmlns:sketch="http://www.bohemiancoding.com/sketch/ns">
    <!-- Generator: Sketch 3.3.2 (12043) - http://www.bohemiancoding.com/sketch -->
    <title>Logo</title>
    <desc>Created with Sketch.</desc>
    <defs></defs>
    <g id="Page-1" stroke="none" stroke-width="1" fill="none" fill-rule="evenodd" sketch:type="MSPage">
        <g id="Mobile-Portrait" sketch:type="MSArtboardGroup" transform="translate(-10.000000, -5.000000)" fill="#E8E7D3">
            <g id="Header" sketch:type="MSLayerGroup">
                <g id="Logo" transform="translate(10.000000, 5.000000)" sketch:type="MSShapeGroup">
                    <path d="M22.6324387,18.0039286 C22.4746446,18.3664286 22.2980147,18.7192857 22.1053922,19.0607143 L21.0975,18.9767857 L20.2097304,19.2185714 L19.0952206,19.0421429 L17.9323775,19.0764286 L16.3419975,19.04 L16.2286275,19.1503571 L13.1957108,19.0971429 L12.8627083,19.0528571 L12.5211765,19.1353571 C12.5211765,19.1353571 11.4905392,19.0046429 11.4876961,19.055 C11.4841422,19.1057143 11.1788603,19.1657143 11.1788603,19.1657143 L9.96839461,19.04 L9.29776961,18.9860714 L8.85601716,19.0453571 L8.40928922,19.1685714 L7.90498775,18.9817857 L6.26449755,19.055 L5.8817402,19.0082143 L4.72636029,19.0667857 L4.42107843,19.1632143 L3.52939951,19.2028571 L3.14664216,19.2742857 L2.32746324,19.1582143 L2.07122549,19.1775 C1.5313848,18.2464286 1.11735294,17.2325 0.851875,16.1596429 L1.25026961,15.9421429 L1.37643382,15.4885714 L1.63018382,15.0303571 L2.20698529,14.6396429 L2.32,14.2496429 L2.14194853,13.6221429 L2.40707108,12.9028571 L2.52186275,12.7217857 L2.58405637,12.0503571 L3.00839461,11.5907143 L3.498125,10.5085714 L3.72131127,10.285 L3.85529412,10.6278571 L4.22987745,10.6214286 L4.50921569,10.7060714 L4.48007353,10.9153571 L4.93426471,11.3057143 L5.05083333,11.7017857 L4.82515931,13.7971429 L4.93213235,13.9642857 L5.65109069,14.015 L6.14544118,13.87 L6.25241422,14.5871429 L6.51824755,15.31 L6.57120098,14.4653571 L6.6792402,14.2564286 L6.64867647,14.1292857 L7.46252451,12.8914286 L7.60823529,12.5589286 L8.21169118,11.9953571 L8.97151961,11.0796429 L9.41966912,10.5675 L9.62401961,10.5567857 L10.3902451,9.68678571 L10.758076,7.3575 L10.6265809,6.39714286 L10.8209804,5.25214286 L10.9499877,5.15357143 L11.4571324,3.915 L11.9070588,1.88928571 L11.9784926,1.74964286 L12.1625858,1.39 L12.2187377,1.3725 L12.4596936,0.994285714 L12.5613358,0.188214286 L12.9153064,0 L13.1086397,0.176785714 L13.3567034,0.114285714 L13.827598,0.527857143 L14.3717034,1.20464286 L14.4971569,1.71321429 L15.386348,2.43714286 L15.7662623,2.58714286 L15.7744363,2.83035714 C15.7744363,2.83035714 16.2286275,3.47785714 16.2755392,3.53 C16.3220956,3.58214286 16.5268015,3.77321429 16.5268015,3.77321429 L16.5477696,3.915 L16.9948529,4.08285714 L17.2642402,4.26571429 C17.2645956,4.26571429 17.4518873,4.47535714 17.480674,4.49785714 C17.5094608,4.52035714 17.9654289,4.92928571 17.9654289,4.92928571 L18.3702206,5.29535714 L18.5496936,5.3875 L19.1950858,7.685 L19.8856127,9.22107143 L20.0156863,9.95178571 L20.6546814,11.1939286 L21.2876348,12.1557143 L21.5001593,13.0828571 L21.9706985,14.08 L22.165098,15.5535714 L22.2358211,15.6578571 L22.3275123,16.7307143 L22.4160049,17.3175 L22.348125,17.7467857 L22.5133824,17.9810714 L22.6324387,18.0039286" id="Fill-1"></path>
                    <path d="M15.0924387,1.47428571 C14.1055147,1.2125 13.0837623,1.07964286 12.054902,1.07964286 C12.0278922,1.07964286 12.0008824,1.07964286 11.9763603,1.08 C8.82723039,1.10071429 5.86930147,2.34857143 3.64845588,4.59392857 C1.42618873,6.84071429 0.202573529,9.8225 0.202573529,12.99 C0.202573529,13.9653571 0.320208333,14.9357143 0.552634804,15.8746429 C0.821666667,16.9610714 1.24280637,18.0039286 1.80468137,18.9735714 C2.82998775,20.7439286 4.30095588,22.2282143 6.05872549,23.2660714 C7.86944853,24.3357143 9.94316176,24.9010714 12.054902,24.9010714 C14.1911642,24.9010714 16.2851348,24.3235714 18.1107843,23.2310714 C19.883125,22.1703571 21.3572917,20.6564286 22.3737132,18.8535714 C22.5727328,18.5007143 22.7546936,18.1357143 22.9146201,17.7685714 C23.5731618,16.26 23.906875,14.6521429 23.906875,12.99 C23.906875,7.58892857 20.2822304,2.85357143 15.0924387,1.47428571 L15.0924387,1.47428571 Z M12.054902,24.1725 C10.8170711,24.1725 9.59310049,23.9285714 8.43345588,23.5714286 L15.6759926,23.5714286 C14.5167034,23.9285714 13.2934436,24.1725 12.054902,24.1725 L12.054902,24.1725 Z M17.7951961,22.8325 C17.5808946,22.9607143 17.3623284,22.8571429 17.1405637,23.2142857 L6.96995098,23.2142857 C6.76702206,22.8571429 6.56729167,22.9817857 6.3707598,22.8660714 C6.00719363,22.6510714 5.65606618,22.1428571 5.3198652,22.1428571 L18.7895833,22.1428571 C18.4707966,22.1428571 18.1388603,22.6267857 17.7951961,22.8325 L17.7951961,22.8325 Z M19.5415931,21.4285714 L4.56856618,21.4285714 C4.19647059,21.0714286 3.84676471,20.7142857 3.52193627,20.3571429 L20.5878676,20.3571429 C20.2633946,20.7142857 19.9136887,21.0714286 19.5415931,21.4285714 L19.5415931,21.4285714 Z M22.349902,17.52 C22.1985049,17.8678571 22.0261397,18.1771429 21.8374265,18.5114286 C21.6089093,18.9171429 21.3555147,19.2857143 21.0800858,19.6428571 L3.02936275,19.6428571 C2.77987745,19.2857143 2.54851716,18.9903571 2.33741422,18.6257143 C1.80503676,17.7064286 1.40557598,16.7371429 1.1511152,15.7075 C0.930772059,14.8175 0.818823529,13.9075 0.818823529,12.9825 C0.818823529,9.97964286 1.97917892,7.15892857 4.08558824,5.02928571 C6.19093137,2.90035714 8.99497549,1.76 11.9834681,1.74035714 C12.0058578,1.74 12.0286029,1.78571429 12.0509926,1.78571429 L12.054902,1.78571429 C13.0308088,1.78571429 13.9996078,1.86821429 14.9346446,2.11642857 C19.8546936,3.42392857 23.290625,7.88821429 23.290625,13.0085714 C23.290625,14.5846429 22.974326,16.09 22.349902,17.52 L22.349902,17.52 Z" id="Fill-2"></path>
                    <path d="M12.054902,24.7585714 C8.9267402,24.7585714 5.9858701,23.5346429 3.77426471,21.3117857 C1.56230392,19.0889286 0.344019608,16.1339286 0.344019608,12.9903571 C0.344019608,9.84678571 1.56230392,6.89142857 3.77426471,4.66892857 C5.9858701,2.44607143 8.9267402,1.22178571 12.054902,1.22178571 C15.1827083,1.22178571 18.1235784,2.44607143 20.3355392,4.66892857 C22.5471446,6.89142857 23.7654289,9.84678571 23.7654289,12.9903571 C23.7654289,16.1339286 22.5471446,19.0889286 20.3355392,21.3117857 C18.1235784,23.5346429 15.1827083,24.7585714 12.054902,24.7585714 L12.054902,24.7585714 Z M12.054902,2.915 C9.37702206,2.915 6.85906863,3.96321429 4.96553922,5.86607143 C3.07165441,7.76892857 2.02893382,10.2989286 2.02893382,12.9903571 C2.02893382,15.6814286 3.07165441,18.2117857 4.96553922,20.1146429 C6.85906863,22.0175 9.37702206,23.0657143 12.054902,23.0657143 C14.7327819,23.0657143 17.2503799,22.0175 19.1442647,20.1146429 C21.0377941,18.2117857 22.0805147,15.6814286 22.0805147,12.9903571 C22.0805147,10.2989286 21.0377941,7.76892857 19.1442647,5.86607143 C17.2503799,3.96321429 14.7327819,2.915 12.054902,2.915 L12.054902,2.915 Z" id="Fill-3"></path>
                </g>
            </g>
        </g>
    </g>
</svg>