<?xml version="1.0" encoding="UTF-8" standalone="no"?>
<svg width="35px" height="35px" viewBox="0 0 35 35" version="1.1" xmlns="http://www.w3.org/2000/svg" xmlns:xlink="http://www.w3.org/1999/xlink" xmlns:sketch="http://www.bohemiancoding.com/sketch/ns">
    <!-- Generator: Sketch 3.3.2 (12043) - http://www.bohemiancoding.com/sketch -->
    <title>tent icon copy</title>
    <desc>Created with Sketch.</desc>
    <defs></defs>
    <g id="Page-1" stroke="none" stroke-width="1" fill="none" fill-rule="evenodd" sketch:type="MSPage">
        <g id="Desktop---3-Camp-Cols" sketch:type="MSArtboardGroup" transform="translate(-69.000000, -3475.000000)">
            <g id="Campgrounds" sketch:type="MSLayerGroup" transform="translate(10.000000, 2962.000000)">
                <g id="Camps" transform="translate(0.000000, 112.000000)" sketch:type="MSShapeGroup">
                    <g id="Row-1">
                        <g id="Altair">
                            <g id="Text-content" transform="translate(11.000000, 205.000000)">
                                <g id="Icons-+-$20-per-night,-first" transform="translate(1.000000, 167.000000)">
                                    <g id="Icons" transform="translate(0.000000, 29.000000)">
                                        <g id="tent-icon-copy" transform="translate(47.000000, 0.000000)">
                                            <rect id="Rectangle-103-Copy-4" fill="#858C04" x="0" y="0" width="35" height="35"></rect>
                                            <g id="camping5" transform="translate(4.000000, 8.000000)" fill="#E8E7D3">
                                                <g id="Group">
                                                    <path d="M18.2690115,0.328224631 C18.1636674,0.159419019 17.8358509,0.0126004793 17.6367939,0.0126004793 L12.0268259,0.0126004793 C11.8277689,0.0126004793 11.820933,0.162377836 11.9194923,0.335060518 L21.8369367,17.5571099 C21.9354959,17.7298436 22.1695996,17.7410157 22.359372,17.6825026 L27.7688547,15.9726634 C27.9590862,15.9141503 28.0278532,15.68877 27.9225091,15.5199644 L18.2690115,0.328224631 L18.2690115,0.328224631 Z" id="Shape"></path>
                                                    <path d="M4.82266766,17.5605279 L9.60819706,7.34551828 L9.60819706,17.2282731 C9.60819706,18.1127044 10.5457849,18.0619964 10.7448419,18.0619964 L20.0710331,18.0619964 C20.270039,18.0619964 20.3509984,17.7415259 20.2524902,17.5687922 L10.6170516,0.489684214 C10.5184924,0.317001532 10.3589714,0.317001532 10.2604632,0.489684214 L7.84770094,4.72640407 C7.74914173,4.89908676 7.52865885,5.1176311 7.35454777,5.21420077 C4.91398287,6.56836969 1.62265605,8.37676803 0.164061301,9.01679075 C-0.0544830441,9.11290129 -0.0422906775,9.38847939 0.127943328,9.55534646 C0.452341903,9.87245002 1.14164424,10.5978703 1.77824902,11.4715376 C2.14850926,11.9798419 2.47239769,12.5467105 2.73782398,13.1091918 C2.82271142,13.2891695 2.80659097,13.5769909 2.70808277,13.7501327 L0.635788557,17.5687922 C0.538249624,17.7415259 0.619719119,18.0619964 0.81872507,18.0619964 L4.29936516,18.0619964 C4.49826908,18.0620474 4.73242374,17.7381079 4.82266766,17.5605279 L4.82266766,17.5605279 Z M2.0396452,9.69053379 C1.95037054,9.61146196 1.96062438,9.50611787 2.0664786,9.45051252 C3.09334115,8.91292608 7.95156562,6.363089 9.30236761,5.53722196 C9.40434477,5.47478072 9.44138099,5.50793988 9.38725505,5.61430425 L4.78221349,14.6633869 C4.72803653,14.7697513 4.66610542,14.7609769 4.63978216,14.6443587 C4.46658933,13.8794024 3.76361523,11.2154469 2.0396452,9.69053379 L2.0396452,9.69053379 Z" id="Shape"></path>
                                                </g>
                                            </g>
                                        </g>
                                    </g>
                                </g>
                            </g>
                        </g>
                    </g>
                </g>
            </g>
        </g>
    </g>
</svg>