<?xml version="1.0" encoding="UTF-8" standalone="no"?>
<svg width="35px" height="35px" viewBox="0 0 35 35" version="1.1" xmlns="http://www.w3.org/2000/svg" xmlns:xlink="http://www.w3.org/1999/xlink" xmlns:sketch="http://www.bohemiancoding.com/sketch/ns">
    <!-- Generator: Sketch 3.3.2 (12043) - http://www.bohemiancoding.com/sketch -->
    <title>restrooms icon copy</title>
    <desc>Created with Sketch.</desc>
    <defs></defs>
    <g id="Page-1" stroke="none" stroke-width="1" fill="none" fill-rule="evenodd" sketch:type="MSPage">
        <g id="Desktop---3-Camp-Cols" sketch:type="MSArtboardGroup" transform="translate(-116.000000, -3475.000000)">
            <g id="Campgrounds" sketch:type="MSLayerGroup" transform="translate(10.000000, 2962.000000)">
                <g id="Camps" transform="translate(0.000000, 112.000000)" sketch:type="MSShapeGroup">
                    <g id="Row-1">
                        <g id="Altair">
                            <g id="Text-content" transform="translate(11.000000, 205.000000)">
                                <g id="Icons-+-$20-per-night,-first" transform="translate(1.000000, 167.000000)">
                                    <g id="Icons" transform="translate(0.000000, 29.000000)">
                                        <g id="restrooms-icon-copy" transform="translate(94.000000, 0.000000)">
                                            <rect id="Rectangle-103-Copy-2" fill="#858C04" x="0" y="0" width="35" height="35"></rect>
                                            <g id="toilets" transform="translate(4.000000, 4.000000)" fill="#E8E7D3">
                                                <g id="Group">
                                                    <path d="M14.4051064,0 C13.6937872,0 13.1147234,0.576680851 13.1147234,1.288 L13.1147234,26.1311489 C13.1147234,26.8418723 13.6937872,27.4191489 14.4051064,27.4191489 C15.115234,27.4191489 15.6937021,26.8430638 15.6937021,26.1311489 L15.6937021,1.288 C15.6937021,0.577276596 15.1164255,0 14.4051064,0 L14.4051064,0 Z" id="Shape"></path>
                                                    <path d="M27.1671489,13.9374468 L26.3956596,7.33480851 C26.2782979,6.3333617 25.4293617,5.57259574 24.4213617,5.57259574 L20.0021277,5.57259574 C18.9893617,5.57259574 18.1380426,6.33991489 18.0266383,7.34731915 L17.2956596,13.944 C17.2819574,14.0637447 17.3159149,14.1858723 17.3915745,14.2811915 C17.4660426,14.3759149 17.5762553,14.4384681 17.6965957,14.4521702 L19.0328511,14.4581277 L18.7302128,17.2658723 C18.7171064,17.392766 18.757617,17.5113191 18.8422128,17.6066383 C18.928,17.700766 19.0495319,17.747234 19.1764255,17.747234 L19.3062979,17.747234 L19.3062979,26.5624681 C19.3062979,27.0360851 19.7060426,27.412 20.1802553,27.412 L21.0387234,27.412 C21.5117447,27.412 21.8852766,27.0360851 21.8852766,26.5624681 L21.8852766,17.7478298 L22.5394043,17.7478298 L22.5394043,26.5630638 C22.5394043,27.0366809 22.9260426,27.4125957 23.3996596,27.4125957 L24.2575319,27.4125957 C24.7323404,27.4125957 25.118383,27.0366809 25.118383,26.5630638 L25.118383,17.7478298 L25.2548085,17.7478298 C25.3834894,17.7478298 25.5068085,17.7001702 25.5931915,17.6042553 C25.6795745,17.5083404 25.7212766,17.3838298 25.7075745,17.2551489 L25.4204255,14.4462128 L26.770383,14.445617 C27.02,14.415234 27.1981277,14.1870638 27.1671489,13.9374468 L27.1671489,13.9374468 Z" id="Shape"></path>
                                                    <circle id="Oval" cx="22.2182979" cy="2.36808511" r="2.36808511"></circle>
                                                    <circle id="Oval" cx="6.12068085" cy="2.36808511" r="2.36808511"></circle>
                                                    <path d="M9.87089362,14.3949787 L10.7317447,14.396766 C10.980766,14.361617 11.1547234,14.1316596 11.1195745,13.8826383 L10.2950638,7.59038298 C10.1431489,6.43880851 9.16255319,5.57259574 8.00085106,5.57259574 L4.24646809,5.57259574 C3.08476596,5.57259574 2.10357447,6.43880851 1.95225532,7.59097872 L1.12417021,13.9106383 C1.08902128,14.1596596 1.26238298,14.3925957 1.51259574,14.4265532 L2.34187234,14.4295319 L0.287744681,19.0489362 C0.225787234,19.1895319 0.238297872,19.3468085 0.322893617,19.4760851 C0.406893617,19.6059574 0.55106383,19.6738723 0.705361702,19.6738723 L3.20987234,19.6738723 L3.20987234,26.5624681 C3.20987234,27.0360851 3.60782979,27.4125957 4.08204255,27.4125957 L4.93991489,27.4125957 C5.41412766,27.4125957 5.78944681,27.0360851 5.78944681,26.5624681 L5.78944681,19.6732766 L6.44238298,19.6732766 L6.44238298,26.5624681 C6.44238298,27.0360851 6.82723404,27.412 7.30144681,27.412 L8.15931915,27.412 C8.63353191,27.412 9.02255319,27.0360851 9.02255319,26.5624681 L9.02255319,19.6732766 L11.5354043,19.6732766 C11.6902979,19.6732766 11.8338723,19.6059574 11.9184681,19.4766809 C12.0024681,19.3462128 12.0161702,19.1913191 11.9524255,19.0507234 L9.87089362,14.3949787 L9.87089362,14.3949787 Z" id="Shape"></path>
                                                </g>
                                            </g>
                                        </g>
                                    </g>
                                </g>
                            </g>
                        </g>
                    </g>
                </g>
            </g>
        </g>
    </g>
</svg>