<?xml version="1.0" encoding="UTF-8" standalone="no"?>
<svg width="35px" height="35px" viewBox="0 0 35 35" version="1.1" xmlns="http://www.w3.org/2000/svg" xmlns:xlink="http://www.w3.org/1999/xlink" xmlns:sketch="http://www.bohemiancoding.com/sketch/ns">
    <!-- Generator: Sketch 3.3.2 (12043) - http://www.bohemiancoding.com/sketch -->
    <title>rv icon copy</title>
    <desc>Created with Sketch.</desc>
    <defs></defs>
    <g id="Page-1" stroke="none" stroke-width="1" fill="none" fill-rule="evenodd" sketch:type="MSPage">
        <g id="Desktop---3-Camp-Cols" sketch:type="MSArtboardGroup" transform="translate(-22.000000, -3475.000000)">
            <g id="Campgrounds" sketch:type="MSLayerGroup" transform="translate(10.000000, 2962.000000)">
                <g id="Camps" transform="translate(0.000000, 112.000000)" sketch:type="MSShapeGroup">
                    <g id="Row-1">
                        <g id="Altair">
                            <g id="Text-content" transform="translate(11.000000, 205.000000)">
                                <g id="Icons-+-$20-per-night,-first" transform="translate(1.000000, 167.000000)">
                                    <g id="Icons" transform="translate(0.000000, 29.000000)">
                                        <g id="rv-icon-copy">
                                            <rect id="Rectangle-103-Copy" fill="#858C04" x="0" y="0" width="35" height="35"></rect>
                                            <g id="caravan1" transform="translate(3.000000, 9.000000)" fill="#E8E7D3">
                                                <g id="Group">
                                                    <path d="M15.7392314,11.498462 C15.0751099,11.498462 14.5153852,11.7261543 14.0600006,12.181539 C13.604616,12.6369236 13.3769236,13.2061544 13.3769236,13.8892314 C13.3769236,14.5723083 13.604616,15.1415391 14.0600006,15.5969237 C14.5153852,16.0523084 15.0751099,16.2800007 15.7392314,16.2800007 C16.403353,16.2800007 16.9630776,16.0523084 17.4184623,15.5969237 C17.8738469,15.1415391 18.1015392,14.5723083 18.1015392,13.8892314 C18.1015392,13.2061544 17.8738469,12.6369236 17.4184623,12.181539 C16.9630776,11.7261543 16.403353,11.498462 15.7392314,11.498462 L15.7392314,11.498462 Z M16.6500007,14.7715391 C16.403353,15.0181868 16.0997253,15.1415391 15.7392314,15.1415391 C15.3787376,15.1415391 15.0751099,15.0181868 14.8284622,14.7715391 C14.5818145,14.5248914 14.4584621,14.2307698 14.4584621,13.8892314 C14.4584621,13.5476929 14.5818145,13.2535713 14.8284622,13.0069236 C15.0752237,12.7602759 15.3788514,12.6369236 15.7392314,12.6369236 C16.0997822,12.6369236 16.403353,12.7602759 16.6500007,13.0069236 C16.8966484,13.2535713 17.0200007,13.5476929 17.0200007,13.8892314 C17.0200007,14.2307698 16.8966484,14.5248914 16.6500007,14.7715391 L16.6500007,14.7715391 Z" id="Shape"></path>
                                                    <path d="M27.3515396,2.10615393 C26.9151104,1.53692314 26.317418,1.1195062 25.5584626,0.85384619 C25.103078,0.702032337 23.7748918,0.521813868 21.5738471,0.313076936 C19.3728024,0.104340004 17.4184623,0 15.7107699,0 C14.078956,0 12.0961544,0.104340004 9.7623081,0.313076936 C7.42846185,0.521813868 6.03384641,0.683076952 5.57846177,0.796923111 L5.2369233,0.910769269 C5.12307714,0.948736963 4.91434021,1.06258312 4.61076943,1.25230775 C4.30719864,1.44203237 4.04153863,1.6507693 3.81384631,1.87846162 C3.586154,2.10615393 3.37741707,2.43818626 3.18769244,2.87461551 C2.99796782,3.31104476 2.90307705,3.79489093 2.90307705,4.32615403 L2.90307705,11.6692313 C2.90307705,12.4281867 3.07384628,12.8076928 3.41538476,12.8076928 L0,12.8076928 L0,13.9461544 L12.8076928,13.9461544 C12.8076928,13.1112636 13.0923082,12.4092313 13.661539,11.8400005 C14.2307698,11.2707697 14.9328022,10.9861543 15.767693,10.9861543 C16.6025838,10.9861543 17.3046161,11.2707697 17.8738469,11.8400005 C18.4430777,12.4092313 18.7276931,13.1112636 18.7276931,13.9461544 L25.843078,13.9461544 C26.4123088,13.9461544 26.9151104,13.7184621 27.3515396,13.2630775 C27.7879689,12.8076928 28.006155,12.2764297 28.006155,11.6692313 L28.006155,3.92769247 C28.006155,3.28258322 27.7879689,2.67538473 27.3515396,2.10615393 L27.3515396,2.10615393 Z M11.1000005,6.6030772 C11.1000005,6.86873721 10.9671989,7.00153876 10.7015389,7.00153876 L6.8876926,7.00153876 C6.58412182,7.00153876 6.43230796,6.8876926 6.43230796,6.66000028 L6.43230796,3.92769247 C6.43230796,3.81384631 6.47972489,3.70950631 6.57461566,3.61461554 C6.66950644,3.51972476 6.77384644,3.47230784 6.8876926,3.47230784 L10.7015389,3.47230784 C10.9671989,3.47230784 11.1000005,3.62412169 11.1000005,3.92769247 L11.1000005,6.6030772 L11.1000005,6.6030772 Z M25.103078,6.66000028 C25.103078,6.8876926 24.9512641,7.00153876 24.6476933,7.00153876 L16.1661545,7.00153876 C15.9004945,7.00153876 15.767693,6.8876926 15.767693,6.66000028 L15.767693,3.92769247 C15.767693,3.62412169 15.9004945,3.47230784 16.1661545,3.47230784 L24.6476933,3.47230784 C24.9512641,3.47230784 25.103078,3.62412169 25.103078,3.92769247 L25.103078,6.66000028 L25.103078,6.66000028 Z" id="Shape"></path>
                                                </g>
                                            </g>
                                        </g>
                                    </g>
                                </g>
                            </g>
                        </g>
                    </g>
                </g>
            </g>
        </g>
    </g>
</svg>