<?xml version="1.0" encoding="UTF-8" standalone="no"?>
<svg width="35px" height="35px" viewBox="0 0 35 35" version="1.1" xmlns="http://www.w3.org/2000/svg" xmlns:xlink="http://www.w3.org/1999/xlink" xmlns:sketch="http://www.bohemiancoding.com/sketch/ns">
    <!-- Generator: Sketch 3.3.2 (12043) - http://www.bohemiancoding.com/sketch -->
    <title>water icon copy</title>
    <desc>Created with Sketch.</desc>
    <defs></defs>
    <g id="Page-1" stroke="none" stroke-width="1" fill="none" fill-rule="evenodd" sketch:type="MSPage">
        <g id="Desktop---3-Camp-Cols" sketch:type="MSArtboardGroup" transform="translate(-163.000000, -3475.000000)">
            <g id="Campgrounds" sketch:type="MSLayerGroup" transform="translate(10.000000, 2962.000000)">
                <g id="Camps" transform="translate(0.000000, 112.000000)" sketch:type="MSShapeGroup">
                    <g id="Row-1">
                        <g id="Altair">
                            <g id="Text-content" transform="translate(11.000000, 205.000000)">
                                <g id="Icons-+-$20-per-night,-first" transform="translate(1.000000, 167.000000)">
                                    <g id="Icons" transform="translate(0.000000, 29.000000)">
                                        <g id="water-icon-copy" transform="translate(141.000000, 0.000000)">
                                            <rect id="Rectangle-103-Copy-3" fill="#858C04" x="0" y="0" width="35" height="35"></rect>
                                            <g id="drink81" transform="translate(4.000000, 4.000000)" fill="#E8E7D3">
                                                <g id="Group">
                                                    <path d="M0.273265033,0.371046771 C0.0799465479,0.586191537 -0.0104766147,0.876169265 0.0238218263,1.16302895 L2.66480178,23.3822138 C2.72404454,23.8935724 3.15745212,24.2770601 3.67192873,24.2770601 L13.8180312,24.2770601 C13.7650245,24.1305434 13.7182539,23.9808463 13.6746013,23.8312116 C13.5280535,23.3291448 13.4282762,22.8022584 13.3752383,22.2503341 C13.3440579,21.935412 13.3284677,21.6111359 13.3284677,21.2806236 C13.3284677,18.3683742 15.0995457,15.711804 16.6772428,13.3919822 C16.7957283,13.2142851 16.9173318,13.0427929 17.0358174,12.8743875 L18.4607617,1.16926503 C18.4950601,0.882405345 18.404637,0.592427617 18.2144365,0.374164811 C18.021118,0.155902004 17.7467305,0.0311804009 17.4567528,0.0311804009 L1.03091759,0.0311804009 C0.740971047,0.0311804009 0.463465479,0.155902004 0.273265033,0.371046771 L0.273265033,0.371046771 Z M16.3062272,2.05790646 L15.4705924,8.90824053 C15.2460935,8.9986637 15.0091225,9.06726058 14.7472071,9.12962138 C13.3378842,9.45389755 11.8724053,9.20757238 10.4879644,8.87082405 C8.56101559,8.40623608 6.60912249,7.74832962 4.60110468,7.95723831 L6.01669488,19.8744187 C6.0572294,20.2174031 5.81402227,20.5260891 5.47103786,20.5665924 L5.00644989,20.6227483 C4.66346548,20.6632517 4.35477951,20.4200757 4.31424499,20.0770913 L2.92048107,8.35011136 C2.91736303,8.35011136 2.91736303,8.35011136 2.91424499,8.3532294 L2.16591537,2.0610245 L16.3062272,2.0610245 L16.3062272,2.05790646 L16.3062272,2.05790646 Z" id="Shape"></path>
                                                    <path d="M16.7801693,14.932294 C15.2149131,17.4080178 13.7026637,20.5229087 14.5632428,23.5474076 C15.3427528,26.285078 17.8215947,27.9874967 20.6309488,27.9874967 C24.151216,27.9874967 27.0042227,25.5492205 27.0042227,21.2775056 C27.0042227,17.0057906 20.6340668,9.75634744 20.6340668,9.75634744 C20.6340668,9.75634744 18.5606013,12.1135857 16.7801693,14.932294 L16.7801693,14.932294 Z" id="Shape"></path>
                                                </g>
                                            </g>
                                        </g>
                                    </g>
                                </g>
                            </g>
                        </g>
                    </g>
                </g>
            </g>
        </g>
    </g>
</svg>